<?xml version="1.0" encoding="UTF-8" standalone="no"?>
<!-- Created with Inkscape (http://www.inkscape.org/) -->

<svg
   xmlns:dc="http://purl.org/dc/elements/1.1/"
   xmlns:cc="http://creativecommons.org/ns#"
   xmlns:rdf="http://www.w3.org/1999/02/22-rdf-syntax-ns#"
   xmlns:svg="http://www.w3.org/2000/svg"
   xmlns="http://www.w3.org/2000/svg"
   xmlns:sodipodi="http://sodipodi.sourceforge.net/DTD/sodipodi-0.dtd"
   xmlns:inkscape="http://www.inkscape.org/namespaces/inkscape"
   width="210mm"
   height="297mm"
   viewBox="0 0 744.09448819 1052.3622047"
   id="svg2"
   version="1.1"
   inkscape:version="0.91 r13725"
   sodipodi:docname="Perfil.svg">
  <defs
     id="defs4" />
  <sodipodi:namedview
     id="base"
     pagecolor="#ffffff"
     bordercolor="#666666"
     borderopacity="1.0"
     inkscape:pageopacity="0.0"
     inkscape:pageshadow="2"
     inkscape:zoom="0.87327348"
     inkscape:cx="372.04724"
     inkscape:cy="526.1811"
     inkscape:document-units="px"
     inkscape:current-layer="layer3"
     showgrid="false"
     inkscape:window-width="1873"
     inkscape:window-height="1056"
     inkscape:window-x="47"
     inkscape:window-y="24"
     inkscape:window-maximized="1" />
  <metadata
     id="metadata7">
    <rdf:RDF>
      <cc:Work
         rdf:about="">
        <dc:format>image/svg+xml</dc:format>
        <dc:type
           rdf:resource="http://purl.org/dc/dcmitype/StillImage" />
        <dc:title></dc:title>
      </cc:Work>
    </rdf:RDF>
  </metadata>
  <g
     inkscape:groupmode="layer"
     id="layer2"
     inkscape:label="Piernas"
     style="display:inline">
    <path
       style="fill:none;fill-rule:evenodd;stroke:#000000;stroke-width:1px;stroke-linecap:butt;stroke-linejoin:miter;stroke-opacity:1"
       d="m 313.36154,482.3195 0.40486,3.84617 2.83402,5.87047 -11.13364,23.27944 -5.66804,1.01215 -4.45346,1.82187 -4.65589,3.03645 -4.0486,5.66804 -2.22673,5.4656 0.40486,8.0972 0.40486,4.65589 -26.31589,43.72487 39.67627,21.05271 15.78953,-54.25122 4.85832,-2.83402 3.64374,-3.64374 2.22673,-3.64374 1.82187,-7.69234 -1.21458,-6.88262 -1.41701,-4.45345 13.36038,-28.13777 6.88261,-2.0243 3.64374,-3.23887 3.03645,-3.23888 1.82187,-2.83402 0.80972,-4.0486 z"
       id="path3463"
       inkscape:connector-curvature="0" />
    <path
       style="fill:none;fill-rule:evenodd;stroke:#000000;stroke-width:1px;stroke-linecap:butt;stroke-linejoin:miter;stroke-opacity:1"
       d="m 378.74641,482.92679 0.60729,3.84617 2.42916,4.0486 3.44131,3.44131 3.23888,3.64373 4.0486,1.21458 3.44131,1.01215 11.74094,25.70861 -2.63159,3.03644 -1.61944,4.45346 -1.01215,4.85832 1.01215,6.0729 1.82187,4.45346 3.84616,4.65589 4.65589,4.0486 18.2187,49.19047 37.51234,-21.45687 -26.05141,-42.08304 0.85884,-4.00791 0,-5.72558 -2.00395,-4.86674 -2.57651,-4.00791 -4.58047,-3.72163 -7.15698,-3.43535 -14.60024,-34.92606 z"
       id="path3465"
       inkscape:connector-curvature="0" />
  </g>
  <g
     inkscape:groupmode="layer"
     id="layer8"
     inkscape:label="Pies">
    <path
       style="fill:none;fill-rule:evenodd;stroke:#000000;stroke-width:1px;stroke-linecap:butt;stroke-linejoin:miter;stroke-opacity:1"
       d="m 264.80823,592.31159 -8.01582,13.7414 11.10775,10.47186 16.08876,3.8421 7.15699,-14.60024 z"
       id="path3468"
       inkscape:connector-curvature="0"
       sodipodi:nodetypes="cccccc" />
    <path
       style="fill:none;fill-rule:evenodd;stroke:#000000;stroke-width:1px;stroke-linecap:butt;stroke-linejoin:miter;stroke-opacity:1"
       d="m 437.72084,603.1902 7.72953,15.45907 15.66117,-3.01109 11.14311,-10.76472 -8.69009,-16.48067 z"
       id="path3470"
       inkscape:connector-curvature="0"
       sodipodi:nodetypes="cccccc" />
  </g>
  <g
     inkscape:groupmode="layer"
     id="layer3"
     inkscape:label="Granada"
     style="display:inline">
    <path
       style="fill:none;fill-rule:evenodd;stroke:#000000;stroke-width:0.90019107px;stroke-linecap:butt;stroke-linejoin:miter;stroke-opacity:1"
       d="m 367.5715,127.94012 43.3325,73.11912 65.10021,-58.78236 15.73636,107.22379 13.62415,10.78507 13.26083,12.79585 c 0,0 9.70299,11.15532 10.29013,12.04248 l 10.78189,16.29118 11.62592,17.73138 10.53601,19.55937 7.81117,25.7745 5.44967,29.79605 2.36151,28.69925 -2.54318,25.95728 -4.90469,26.50569 -8.71945,26.14008 -10.89932,20.47336 -12.71585,20.65616 -20.7087,24.31211 -20.89036,17.73138 -28.51986,17.73141 -21.61697,11.15065 -17.80221,6.58072 -20.16374,5.84954 -18.34717,2.37637 -26.07381,1.20934 -27.48821,-2.84367 -31.59861,-6.46288 -29.80032,-10.59913 -22.86404,-13.95981 -21.57954,-13.44279 -20.03815,-18.35458 -19.78124,-25.85151 -15.15706,-27.1441 -8.47767,-24.55893 -7.70699,-26.88557 -2.82589,-24.30043 0.5138,-31.02182 4.11039,-28.69519 8.99148,-28.95368 10.01907,-24.81746 13.10186,-21.19824 12.84496,-16.02794 15.41396,-17.32053 17.72605,-15.25239 12.33116,-9.30655 9.24838,-94.87505 74.65688,50.15195 z"
       id="path3399"
       inkscape:connector-curvature="0"
       sodipodi:nodetypes="ccccccscccccccccccccccccccccccccccccccccccccccccc" />
    <path
       style="fill:none;fill-rule:evenodd;stroke:#000000;stroke-width:1px;stroke-linecap:butt;stroke-linejoin:miter;stroke-opacity:1"
       d="m 225.26402,217.9762 c 0.50507,-3.53553 15.15229,-121.218304 15.15229,-121.218304 l 85.35789,58.083774 40.91117,-80.812206 52.52794,85.357886 c 0,0 64.66473,-63.163559 72.2259,-63.639606 5.06075,-0.318622 23.23351,129.299526 23.23351,129.299526 l 17.67767,14.14214 16.66752,17.17259 16.66752,22.22335 15.28849,22.76179 10.52636,19.83813 7.69234,22.67215 c 0,0 8.90691,25.50617 7.69233,27.93533 -1.21458,2.42916 3.64374,24.2916 3.64374,24.2916 l 0,17.81383 0.40486,20.24299 -3.23888,26.3159 -6.07289,27.12561 -8.50206,26.31589 -12.95552,25.10131 -15.38467,24.29159 -21.05272,25.10132 -25.91103,23.88673 -25.50617,17.00411 -27.93533,14.57496 -28.34019,9.31178 -16.1944,5.66804 -31.17421,4.04859 -21.86243,1.21458 -21.45758,-0.80972 -27.93533,-4.04859 -32.79365,-9.71664 -23.88673,-8.0972 -22.67215,-13.36038 -14.75986,-8.56094 -21.75722,-17.17675 -30.05931,-33.49466 -14.31396,-22.32978 -7.44326,-12.31 -8.58837,-17.46303 -6.29814,-15.1728 -4.29419,-15.74535 -4.58047,-17.46303 -2.29023,-17.46303 -2.29023,-18.32186 -1.71768,-12.31001 1.71768,-17.74931 2.29023,-18.60814 c 0,0 2.86279,-13.16884 3.72163,-14.60024 0.85884,-1.4314 5.72558,-26.33768 5.72558,-26.33768 l 5.43931,-12.31001 7.44325,-19.1807 11.45117,-19.46698 10.59233,-17.46303 13.45512,-15.74536 c 0,0 6.8707,-8.58837 8.87465,-10.01977 2.00396,-1.43139 10.01977,-9.73349 10.01977,-9.73349 l 11.45117,-9.16093 z"
       id="path3395"
       inkscape:connector-curvature="0"
       sodipodi:nodetypes="cccccccccccccscccccccccccccccccccccccccccccccccccsccccccsccc" />
  </g>
  <g
     inkscape:groupmode="layer"
     id="layer4"
     inkscape:label="Casco"
     style="display:inline">
    <path
       style="display:inline;fill:none;fill-rule:evenodd;stroke:#000000;stroke-width:1px;stroke-linecap:butt;stroke-linejoin:miter;stroke-opacity:1"
       d="m 332.99725,277.4604 65.78973,0.60729 0.0246,4.39417 -19.66834,3.96686 0.69114,39.88887 -27.21367,-0.1063 -0.59501,-39.43911 -19.04069,-4.77447 z"
       id="path3406"
       inkscape:connector-curvature="0"
       sodipodi:nodetypes="ccccccccc" />
    <path
       style="display:inline;fill:none;fill-rule:evenodd;stroke:#000000;stroke-width:1px;stroke-linecap:butt;stroke-linejoin:miter;stroke-opacity:1"
       d="m 403.44287,326.24602 -75.10151,0 0.40486,-49.79777 2.0243,-9.91906 2.63159,-7.28748 4.45346,-6.27533 5.26317,-5.46561 6.68019,-3.84617 6.47776,-2.63159 6.88262,-1.41701 3.23888,-0.20243 6.88262,0.80972 4.65588,1.21458 5.66804,2.22673 4.25103,3.44131 4.45346,3.23888 3.84617,4.0486 3.23888,5.46561 1.61944,3.84617 0.80972,4.25102 0.80972,5.46561 1.21458,4.85832 z"
       id="path3404"
       inkscape:connector-curvature="0" />
  </g>
  <g
     inkscape:groupmode="layer"
     id="layer5"
     inkscape:label="Tronco"
     style="display:inline">
    <path
       style="fill:none;fill-rule:evenodd;stroke:#000000;stroke-width:1px;stroke-linecap:butt;stroke-linejoin:miter;stroke-opacity:1"
       d="m 367.00989,336.66429 -17.96402,-3.36378 3.43535,-7.01384 27.26809,-0.14313 3.86477,7.30011 z"
       id="path3419"
       inkscape:connector-curvature="0" />
    <path
       style="fill:none;fill-rule:evenodd;stroke:#000000;stroke-width:1px;stroke-linecap:butt;stroke-linejoin:miter;stroke-opacity:1"
       d="m 306.89126,326.07197 60.11863,10.59233 58.11467,-10.01978 -11.23646,63.9834 -3.14906,9.80506 -4.29419,11.16488 -2.1471,4.07949 -1.50297,11.73744 -13.7414,4.86675 0,9.44721 34.06722,0 0,41.51048 -114.51166,-0.28628 0,-42.08304 34.92606,0.85884 -0.57256,-10.87861 -12.88256,-3.14907 -3.14908,-16.31791 -2.07552,-4.36576 -2.71965,-6.44128 -3.22064,-10.95018 z"
       id="path3411"
       inkscape:connector-curvature="0"
       sodipodi:nodetypes="cccccccccccccccccccccc" />
  </g>
  <g
     inkscape:groupmode="layer"
     id="layer6"
     inkscape:label="Hombros"
     style="display:inline">
    <path
       style="display:inline;fill:none;fill-rule:evenodd;stroke:#000000;stroke-width:1px;stroke-linecap:butt;stroke-linejoin:miter;stroke-opacity:1"
       d="m 424.09072,330.90191 6.88262,1.82187 4.0486,3.23887 3.23888,4.45346 31.37664,-5.46561 4.45345,20.44543 -35.2228,6.0729 -4.25103,4.65588 -4.0486,3.64374 -4.45346,1.41701 -4.25103,0.40486 -4.65589,0 z"
       id="path3423"
       inkscape:connector-curvature="0" />
    <path
       style="display:inline;fill:none;fill-rule:evenodd;stroke:#000000;stroke-width:1px;stroke-linecap:butt;stroke-linejoin:miter;stroke-opacity:1"
       d="m 416.39838,376.44864 5.66804,0.80972 4.25103,3.03645 4.0486,3.64374 2.0243,4.0486 47.97589,5.46561 -6.0729,21.66 -43.72486,-6.0729 -3.03645,3.84617 -4.0486,3.03645 -4.85832,1.82187 -5.46561,1.01215 -4.45346,-0.40486 -3.64373,-2.22673 z"
       id="path3425"
       inkscape:connector-curvature="0" />
    <path
       style="display:inline;fill:none;fill-rule:evenodd;stroke:#000000;stroke-width:1px;stroke-linecap:butt;stroke-linejoin:miter;stroke-opacity:1"
       d="m 316.33848,376.17082 -6.29815,1.71767 -4.58046,3.14908 -3.14907,3.14907 -2.57652,3.72163 -37.50257,5.72558 4.29419,21.47094 35.7849,-6.01187 2.86279,4.58047 5.4393,3.14907 4.29419,1.4314 5.4393,-0.57256 7.15698,-1.4314 z"
       id="path3429"
       inkscape:connector-curvature="0" />
    <path
       style="display:inline;fill:none;fill-rule:evenodd;stroke:#000000;stroke-width:1px;stroke-linecap:butt;stroke-linejoin:miter;stroke-opacity:1"
       d="m 307.89594,330.69948 -4.85832,0.60729 -1.61944,1.01215 -4.0486,3.03644 -3.44131,4.45346 -22.87458,-5.06075 -3.84617,20.04057 25.50617,5.66804 3.64374,4.85832 3.03645,2.02429 4.25103,3.23888 5.06075,1.01215 6.68018,0.60729 z"
       id="path3431"
       inkscape:connector-curvature="0" />
  </g>
  <g
     inkscape:groupmode="layer"
     id="layer7"
     inkscape:label="Manos"
     style="display:inline">
    <path
       style="display:inline;fill:none;fill-rule:evenodd;stroke:#000000;stroke-width:1px;stroke-linecap:butt;stroke-linejoin:miter;stroke-opacity:1"
       d="m 468.62531,331.10434 35.42524,-12.34823 12.14579,39.06898 -39.8787,8.50205 z"
       id="path3438"
       inkscape:connector-curvature="0" />
    <path
       style="display:inline;fill:none;fill-rule:evenodd;stroke:#000000;stroke-width:1px;stroke-linecap:butt;stroke-linejoin:miter;stroke-opacity:1"
       d="m 508.70643,334.03957 8.51288,-4.53536 3.54361,-1.94603 3.78366,-0.60365 -3.99799,-10.17211 1.54594,-1.51484 2.24962,-0.054 4.40285,10.42514 19.23084,-7.99599 2.70067,0.95031 -0.42333,2.79465 -19.48388,8.50206 -0.44412,2.32169 1.6587,1.52447 20.19238,-8.75509 2.534,0.85816 -0.35787,2.78558 -21.55879,8.55266 1.61944,3.64374 21.66,-8.65387 2.20143,0.35424 -0.45547,2.58098 -27.075,11.28547 -6.9264,-1.22408 -5.59896,-2.7233 -6.68019,0.40486 z"
       id="path3440"
       inkscape:connector-curvature="0"
       sodipodi:nodetypes="ccccccccccccccccccccccccccc" />
    <path
       sodipodi:nodetypes="ccccccccccccccccccccccccccc"
       inkscape:connector-curvature="0"
       id="path3442"
       d="m 534.31125,407.4535 9.57471,1.16765 4.01895,0.43843 3.44564,1.67574 2.55952,-10.62566 2.13524,-0.35417 1.87375,1.2461 -2.37301,11.06514 20.33929,4.48043 1.1105,2.20097 -1.39303,2.17295 -20.83684,-4.21102 -1.69547,1.64709 0.48433,2.20016 21.56234,4.41012 1.68471,2.40945 -1.9921,1.82351 -22.56552,-5.35969 -0.7634,3.91366 22.70648,5.33483 1.44831,1.72998 -1.70167,1.67585 -28.65162,-6.28508 -4.97167,-4.97552 -3.02438,-5.44223 -5.70431,-3.49995 z"
       style="display:inline;fill:none;fill-rule:evenodd;stroke:#000000;stroke-width:1px;stroke-linecap:butt;stroke-linejoin:miter;stroke-opacity:1" />
    <path
       style="display:inline;fill:none;fill-rule:evenodd;stroke:#000000;stroke-width:1px;stroke-linecap:butt;stroke-linejoin:miter;stroke-opacity:1"
       d="m 482.59297,385.76042 54.65609,9.51421 -10.72879,40.48598 -53.64393,-18.21869 z"
       id="path3444"
       inkscape:connector-curvature="0" />
    <path
       sodipodi:nodetypes="ccccccccccccccccccccccccccc"
       inkscape:connector-curvature="0"
       id="path3446"
       d="m 226.06553,330.80069 -8.51288,-4.53536 -3.54361,-1.94603 -3.78366,-0.60365 3.99799,-10.17211 -1.54594,-1.51484 -2.24962,-0.054 -4.40285,10.42514 -19.23084,-7.99599 -2.70067,0.95031 0.42333,2.79465 19.48388,8.50206 0.44412,2.32169 -1.6587,1.52447 -20.19238,-8.75509 -2.43279,0.70634 0.25666,2.9374 21.55879,8.55266 -1.61944,3.64374 -21.66,-8.65387 -1.84718,0.7591 0.10122,2.17612 27.075,11.28547 6.9264,-1.22408 5.59896,-2.7233 6.68019,0.40486 z"
       style="display:inline;fill:none;fill-rule:evenodd;stroke:#000000;stroke-width:1px;stroke-linecap:butt;stroke-linejoin:miter;stroke-opacity:1" />
    <path
       style="display:inline;fill:none;fill-rule:evenodd;stroke:#000000;stroke-width:1px;stroke-linecap:butt;stroke-linejoin:miter;stroke-opacity:1"
       d="m 199.01573,408.67651 -9.57471,1.16765 -4.01895,0.43843 -3.44564,1.67574 -2.55952,-10.62566 -2.13524,-0.35417 -1.87375,1.2461 2.37301,11.06514 -20.03565,4.37922 -1.1105,2.15036 1.08939,2.32477 20.83684,-4.21102 1.69547,1.64709 -0.48433,2.20016 -21.56234,4.41012 -1.68471,2.40945 1.9921,1.82351 22.56552,-5.35969 0.7634,3.91366 -23.26316,5.68908 -1.90378,1.37573 2.25835,1.62524 29.10709,-6.23447 4.97167,-4.97552 3.02438,-5.44223 5.70431,-3.49995 z"
       id="path3448"
       inkscape:connector-curvature="0"
       sodipodi:nodetypes="ccccccccccccccccccccccccccc" />
    <path
       style="display:inline;fill:none;fill-rule:evenodd;stroke:#000000;stroke-width:1px;stroke-linecap:butt;stroke-linejoin:miter;stroke-opacity:1"
       d="m 273.68528,325.23387 -7.28748,38.05683 -48.38076,-10.1215 14.1701,-41.29571 z"
       id="path3450"
       inkscape:connector-curvature="0"
       sodipodi:nodetypes="ccccc" />
    <path
       style="display:inline;fill:none;fill-rule:evenodd;stroke:#000000;stroke-width:1px;stroke-linecap:butt;stroke-linejoin:miter;stroke-opacity:1"
       d="m 259.31275,384.14098 8.70449,37.65197 -60.52655,14.77738 -13.36038,-41.70056 z"
       id="path3452"
       inkscape:connector-curvature="0"
       sodipodi:nodetypes="ccccc" />
  </g>
</svg>
